<svg xmlns="http://www.w3.org/2000/svg" xmlns:xlink="http://www.w3.org/1999/xlink" width="124" height="124" viewBox="0 0 124 124">
  <defs>
    <linearGradient id="linear-gradient" x1="0.119" y1="0.1" x2="0.857" y2="1" gradientUnits="objectBoundingBox">
      <stop offset="0" stop-color="#ff9a9a"/>
      <stop offset="1" stop-color="#ff5f5f"/>
    </linearGradient>
    <filter id="사각형_23" x="0" y="0" width="124" height="124" filterUnits="userSpaceOnUse">
      <feOffset dy="5" input="SourceAlpha"/>
      <feGaussianBlur stdDeviation="9" result="blur"/>
      <feFlood flood-color="#ff5f5f" flood-opacity="0.302"/>
      <feComposite operator="in" in2="blur"/>
      <feComposite in="SourceGraphic"/>
    </filter>
  </defs>
  <g id="ico-service-1" transform="translate(27 22)">
    <g transform="matrix(1, 0, 0, 1, -27, -22)" filter="url(#사각형_23)">
      <rect id="사각형_23-2" data-name="사각형 23" width="70" height="70" rx="12" transform="translate(27 22)" fill="url(#linear-gradient)"/>
    </g>
    <g id="그룹_100" data-name="그룹 100" transform="translate(-165.913 -565.938)">
      <g id="그룹_96" data-name="그룹 96" transform="translate(187.672 580.938)">
        <line id="선_20" data-name="선 20" y2="4.197" transform="translate(14.277 9.518)" fill="none" stroke="#fff" stroke-linecap="round" stroke-linejoin="round" stroke-width="2"/>
        <path id="패스_23" data-name="패스 23" d="M214.958,590.456H195.922a4.759,4.759,0,0,1-4.759-4.759h0a4.758,4.758,0,0,1,4.759-4.759h19.036a4.759,4.759,0,0,1,4.759,4.759h0A4.759,4.759,0,0,1,214.958,590.456Z" transform="translate(-191.163 -580.938)" fill="#fff"/>
        <line id="선_21" data-name="선 21" x2="2.479" transform="translate(20.225 4.759)" fill="none" stroke="#ff7e7e" stroke-linecap="round" stroke-linejoin="round" stroke-width="2"/>
      </g>
      <g id="그룹_97" data-name="그룹 97" transform="translate(187.672 595.215)">
        <line id="선_22" data-name="선 22" y2="5.949" transform="translate(14.277 9.518)" fill="none" stroke="#fff" stroke-linecap="round" stroke-linejoin="round" stroke-width="2"/>
        <path id="패스_24" data-name="패스 24" d="M214.958,615.206H195.922a4.759,4.759,0,0,1-4.759-4.759h0a4.758,4.758,0,0,1,4.759-4.759h19.036a4.759,4.759,0,0,1,4.759,4.759h0A4.759,4.759,0,0,1,214.958,615.206Z" transform="translate(-191.163 -605.688)" fill="#fff"/>
        <line id="선_23" data-name="선 23" x2="2.479" transform="translate(20.225 4.759)" fill="none" stroke="#ff7878" stroke-linecap="round" stroke-linejoin="round" stroke-width="2"/>
      </g>
      <g id="그룹_99" data-name="그룹 99" transform="translate(182.913 611.871)">
        <g id="그룹_98" data-name="그룹 98">
          <path id="패스_25" data-name="패스 25" d="M212.422,644.081h0a4.759,4.759,0,0,1-4.759-4.759h0a4.758,4.758,0,0,1,4.759-4.759h0a4.759,4.759,0,0,1,4.759,4.759h0A4.759,4.759,0,0,1,212.422,644.081Z" transform="translate(-193.386 -634.563)" fill="none" stroke="#fff" stroke-linecap="round" stroke-linejoin="round" stroke-width="2"/>
          <line id="선_24" data-name="선 24" x2="14.277" transform="translate(0 4.759)" fill="none" stroke="#fff" stroke-linecap="round" stroke-linejoin="round" stroke-width="2"/>
          <line id="선_25" data-name="선 25" x2="14.277" transform="translate(23.795 4.759)" fill="none" stroke="#fff" stroke-linecap="round" stroke-linejoin="round" stroke-width="2"/>
        </g>
      </g>
    </g>
  </g>
</svg>
