<svg id="google" xmlns="http://www.w3.org/2000/svg" width="46" height="46" viewBox="0 0 46 46">
  <rect id="사각형_62" data-name="사각형 62" width="46" height="46" transform="translate(0)" fill="none" opacity="0.173"/>
  <g id="그룹_136" data-name="그룹 136" transform="translate(-586.062 -620.945)">
    <path id="패스_46" data-name="패스 46" d="M714.291,712.5a26.411,26.411,0,0,0-.418-4.7H692.211v8.9h12.378a10.582,10.582,0,0,1-4.59,6.942V729.4h7.433c4.349-4,6.858-9.9,6.858-16.9Z" transform="translate(-83.149 -68.032)" fill="#3e82f1"/>
    <path id="패스_47" data-name="패스 47" d="M617.907,765.892a21.959,21.959,0,0,0,15.222-5.572l-7.433-5.771a13.876,13.876,0,0,1-20.658-7.287h-7.684v5.959a22.991,22.991,0,0,0,20.554,12.671Z" transform="translate(-8.845 -98.947)" fill="#32a753"/>
    <path id="패스_48" data-name="패스 48" d="M596.193,694.123a13.6,13.6,0,0,1,0-8.74v-5.959h-7.684a23.028,23.028,0,0,0,0,20.658l7.684-5.959Z" transform="translate(0 -45.808)" fill="#f9bb00"/>
    <path id="패스_49" data-name="패스 49" d="M617.907,630.093a12.425,12.425,0,0,1,8.792,3.44l6.6-6.6a22.1,22.1,0,0,0-15.389-5.991,22.991,22.991,0,0,0-20.554,12.671l7.684,5.959a13.707,13.707,0,0,1,12.87-9.482Z" transform="translate(-8.845)" fill="#e74133"/>
  </g>
</svg>
