<svg id="Onedrive" xmlns="http://www.w3.org/2000/svg" width="46" height="46" viewBox="0 0 46 46">
  <rect id="사각형_62" data-name="사각형 62" width="46" height="46" fill="none" opacity="0.173"/>
  <g id="Onedrive-2" data-name="Onedrive" transform="translate(-8 -16.6)">
    <path id="패스_50" data-name="패스 50" d="M57.543,57.268a4.877,4.877,0,0,0,3.99-3.663,5.775,5.775,0,0,0,.116-1.181,5.607,5.607,0,0,0-.051-.765c-.492-3.632-4.43-4.448-4.43-4.448a5.923,5.923,0,0,0-2.924-5.96,7.087,7.087,0,0,0-6.906,0,7.929,7.929,0,0,0-7.155-3.911c-6.719,0-7.84,7.636-7.84,7.636S26,45.351,26,50.936s5.786,6.333,5.786,6.333Z" transform="translate(-7.65 -5.269)" fill="#1565c0"/>
    <path id="패스_51" data-name="패스 51" d="M16.05,45.6c0-5.134,3.779-7.382,6.756-8.113,1.033-3.451,3.892-8.035,9.729-8.035h.043a10.293,10.293,0,0,1,7.926,3.45,9.45,9.45,0,0,1,2.7-.4h.024c.023,0,.045,0,.068,0,.044-.333-.722-8.51-9.98-8.51a9.392,9.392,0,0,0-8.563,5.48s-4.591-3.464-9.306,1.324c-2.421,2.458-1.862,6.236-1.862,6.236A6.35,6.35,0,0,0,8,43.655c0,5.479,5.771,6.045,5.771,6.045H17A8.759,8.759,0,0,1,16.05,45.6Z" fill="#1565c0"/>
  </g>
</svg>
