<svg id="logo" xmlns="http://www.w3.org/2000/svg" width="110" height="29" viewBox="0 0 110 29">
  <g id="그룹_1" data-name="그룹 1" transform="translate(16.602)">
    <path id="패스_1" data-name="패스 1" d="M183.282,221.7a4.808,4.808,0,0,0-.876.406,5.027,5.027,0,0,0-.933.726,4.954,4.954,0,0,0-.611.675,9.141,9.141,0,0,0-1.544,5.424h-2.565v2.562h2.564v11.051a1.233,1.233,0,0,0,1.233,1.232h1.33V231.494H185.7v-2.562h-3.822a7.936,7.936,0,0,1,.619-3.191,2.843,2.843,0,0,1,2.628-1.806h.576v-2.562h-.68A5.057,5.057,0,0,0,183.282,221.7Z" transform="translate(-176.752 -221.373)" fill="#231f20"/>
    <path id="패스_2" data-name="패스 2" d="M208.945,242.56a1.232,1.232,0,0,0,1.232,1.232h1.33V221.373h-2.562Z" transform="translate(-196.156 -221.373)" fill="#231f20"/>
    <path id="패스_3" data-name="패스 3" d="M232.323,240.515h-.386a6.828,6.828,0,0,0-4.638,1.972,7.482,7.482,0,0,0-2.25,5.331V248a7.539,7.539,0,0,0,2.274,5.371,6.869,6.869,0,0,0,9.378.22,7.642,7.642,0,0,0,.111-11.249A6.808,6.808,0,0,0,232.323,240.515Zm4.36,7.393a5.3,5.3,0,0,1-.906,2.923,4.52,4.52,0,0,1-3.648,1.957,4.4,4.4,0,0,1-3.028-1.252,4.973,4.973,0,0,1-1.51-3.553v-.074a5.088,5.088,0,0,1,1.27-3.388A4.409,4.409,0,0,1,232,243.057h.222a4.266,4.266,0,0,1,2.841,1.139A5.006,5.006,0,0,1,236.683,247.908Z" transform="translate(-205.924 -232.741)" fill="#231f20"/>
    <path id="패스_4" data-name="패스 4" d="M360.4,221.464h-.12a1.728,1.728,0,0,0-1.122.457,1.685,1.685,0,0,0-.545,1.21v.12a1.736,1.736,0,0,0,1.682,1.667h.089a1.724,1.724,0,0,0,1.683-1.7v-.074a1.744,1.744,0,0,0-.46-1.138A1.72,1.72,0,0,0,360.4,221.464Z" transform="translate(-286.569 -221.428)" fill="#231f20"/>
    <path id="패스_5" data-name="패스 5" d="M363.977,240.482l-2.562,0v13.623a1.232,1.232,0,0,0,1.232,1.232h1.33Z" transform="translate(-288.261 -232.72)" fill="#231f20"/>
    <path id="패스_6" data-name="패스 6" d="M389.932,243.343l-.006-.008a6.782,6.782,0,0,0-5.414-2.785,6.688,6.688,0,0,0-4.808,2.015,7.543,7.543,0,0,0-2.185,5.349v.133a7.794,7.794,0,0,0,1.49,4.52,6.853,6.853,0,0,0,5.473,2.8,6.728,6.728,0,0,0,4.813-2.078,7.141,7.141,0,0,0,1.5-2.259l.069-.2-.188-.089c-.383-.182-1.553-.655-1.9-.8a.266.266,0,0,0-.339.127,9.4,9.4,0,0,1-.629,1.071,4.261,4.261,0,0,1-3.337,1.682,4.542,4.542,0,0,1-1.385-.251,4.615,4.615,0,0,1-2.439-2.195,6.109,6.109,0,0,1-.557-1.674H391.1c.3,0,.321-.345.321-.913v-.179A7.653,7.653,0,0,0,389.932,243.343Zm-1.341,2.857h-8.229a4.947,4.947,0,0,1,.582-1.172,4.314,4.314,0,0,1,3.508-1.925,4.061,4.061,0,0,1,2.236.662A4.692,4.692,0,0,1,388.591,246.2Z" transform="translate(-298.017 -232.761)" fill="#231f20"/>
    <path id="패스_7" data-name="패스 7" d="M282.393,242.493l-.006-.005a6.945,6.945,0,0,0-4.79-1.973h-.074a5.7,5.7,0,0,0-4.6,2.012V241H270.39v19.364a1.232,1.232,0,0,0,1.232,1.233h1.305v-8.3a5.646,5.646,0,0,0,4.484,2.041,7.164,7.164,0,0,0,5.123-2.107,7.529,7.529,0,0,0,2.121-5.152v-.326a7.713,7.713,0,0,0-.7-3.087A7.872,7.872,0,0,0,282.393,242.493Zm-.275,5.31v.222a5.018,5.018,0,0,1-.521,2.174,4.519,4.519,0,0,1-4.215,2.592,3.961,3.961,0,0,1-3.081-1.411,5.224,5.224,0,0,1-1.254-3.3v-.148a5.4,5.4,0,0,1,.34-1.9,4.229,4.229,0,0,1,4.218-2.952,4.306,4.306,0,0,1,3.007,1.234A4.9,4.9,0,0,1,282.118,247.8Z" transform="translate(-233.311 -232.6)" fill="#231f20"/>
    <path id="패스_8" data-name="패스 8" d="M327.956,242.493l-.006-.005a6.945,6.945,0,0,0-4.79-1.973h-.074a5.7,5.7,0,0,0-4.6,2.012V241h-2.538v19.364a1.233,1.233,0,0,0,1.232,1.233h1.305v-8.3a5.647,5.647,0,0,0,4.484,2.041,7.167,7.167,0,0,0,5.124-2.107,7.53,7.53,0,0,0,2.121-5.152v-.326a7.713,7.713,0,0,0-.7-3.088A7.878,7.878,0,0,0,327.956,242.493Zm-.275,5.31v.222a5.01,5.01,0,0,1-.521,2.174,4.518,4.518,0,0,1-4.214,2.592,3.965,3.965,0,0,1-3.082-1.411,5.225,5.225,0,0,1-1.254-3.3v-.148a5.38,5.38,0,0,1,.34-1.9,4.228,4.228,0,0,1,4.217-2.952,4.306,4.306,0,0,1,3.007,1.234A4.9,4.9,0,0,1,327.681,247.8Z" transform="translate(-260.832 -232.6)" fill="#231f20"/>
  </g>
  <g id="그룹_2" data-name="그룹 2" transform="translate(0 2.201)">
    <circle id="타원_1" data-name="타원 1" cx="2.784" cy="2.784" r="2.784" transform="translate(1.72 12.45)" fill="#ff6720"/>
    <circle id="타원_2" data-name="타원 2" cx="4.504" cy="4.504" r="4.504" transform="translate(0 0)" fill="#ff6720"/>
  </g>
</svg>
