<svg id="logo" xmlns="http://www.w3.org/2000/svg" width="120" height="31" viewBox="0 0 120 31">
  <g id="그룹_1" data-name="그룹 1" transform="translate(18.069)">
    <path id="패스_1" data-name="패스 1" d="M183.859,221.73a5.238,5.238,0,0,0-.954.442,5.472,5.472,0,0,0-1.015.79,5.384,5.384,0,0,0-.665.735,9.949,9.949,0,0,0-1.681,5.9h-2.791v2.788h2.791v12.027a1.341,1.341,0,0,0,1.342,1.341h1.447V232.389h4.162V229.6h-4.16a8.638,8.638,0,0,1,.673-3.473,3.094,3.094,0,0,1,2.86-1.966h.627v-2.788h-.74A5.5,5.5,0,0,0,183.859,221.73Z" transform="translate(-176.752 -221.373)" fill="#fff"/>
    <path id="패스_2" data-name="패스 2" d="M208.945,244.432a1.341,1.341,0,0,0,1.341,1.341h1.447v-24.4h-2.788Z" transform="translate(-195.026 -221.373)" fill="#fff"/>
    <path id="패스_3" data-name="패스 3" d="M232.966,240.515h-.42a7.431,7.431,0,0,0-5.048,2.147,8.143,8.143,0,0,0-2.449,5.8v.193a8.205,8.205,0,0,0,2.475,5.846,7.476,7.476,0,0,0,10.207.24,8.317,8.317,0,0,0,.121-12.244A7.41,7.41,0,0,0,232.966,240.515Zm4.746,8.046a5.766,5.766,0,0,1-.986,3.181,4.919,4.919,0,0,1-3.971,2.13,4.793,4.793,0,0,1-3.3-1.363,5.412,5.412,0,0,1-1.643-3.867v-.081a5.538,5.538,0,0,1,1.382-3.687,4.8,4.8,0,0,1,3.412-1.592h.242a4.644,4.644,0,0,1,3.092,1.24A5.449,5.449,0,0,1,237.712,248.561Z" transform="translate(-204.167 -232.362)" fill="#fff"/>
    <path id="패스_4" data-name="패스 4" d="M360.554,221.464h-.131a1.881,1.881,0,0,0-1.221.5,1.834,1.834,0,0,0-.594,1.317v.13a1.89,1.89,0,0,0,1.83,1.814h.1a1.876,1.876,0,0,0,1.832-1.846V223.3a1.9,1.9,0,0,0-.5-1.238A1.872,1.872,0,0,0,360.554,221.464Z" transform="translate(-279.979 -221.425)" fill="#fff"/>
    <path id="패스_5" data-name="패스 5" d="M364.2,240.482l-2.788,0v14.827a1.341,1.341,0,0,0,1.341,1.341H364.2Z" transform="translate(-281.572 -232.343)" fill="#fff"/>
    <path id="패스_6" data-name="패스 6" d="M391.029,243.59l-.007-.009a7.381,7.381,0,0,0-5.893-3.031,7.279,7.279,0,0,0-5.233,2.193,8.209,8.209,0,0,0-2.378,5.822v.145a8.483,8.483,0,0,0,1.622,4.92,7.459,7.459,0,0,0,5.956,3.046,7.323,7.323,0,0,0,5.238-2.261,7.771,7.771,0,0,0,1.633-2.458l.075-.213-.2-.1c-.417-.2-1.691-.713-2.072-.867a.29.29,0,0,0-.369.138,10.215,10.215,0,0,1-.684,1.166,4.637,4.637,0,0,1-3.631,1.831,4.944,4.944,0,0,1-1.507-.273,5.023,5.023,0,0,1-2.654-2.389,6.65,6.65,0,0,1-.606-1.822H392.3c.326,0,.349-.375.349-.994v-.195A8.329,8.329,0,0,0,391.029,243.59ZM389.57,246.7h-8.957a5.387,5.387,0,0,1,.633-1.275,4.7,4.7,0,0,1,3.818-2.1,4.42,4.42,0,0,1,2.433.721A5.106,5.106,0,0,1,389.57,246.7Z" transform="translate(-290.713 -232.382)" fill="#fff"/>
    <path id="패스_7" data-name="패스 7" d="M283.454,242.668l-.006-.006a7.558,7.558,0,0,0-5.214-2.148h-.081a6.209,6.209,0,0,0-5,2.19v-1.657H270.39v21.075a1.341,1.341,0,0,0,1.341,1.342h1.421v-9.031a6.145,6.145,0,0,0,4.88,2.221,7.8,7.8,0,0,0,5.576-2.293,8.194,8.194,0,0,0,2.308-5.607V248.4a8.4,8.4,0,0,0-.764-3.36A8.57,8.57,0,0,0,283.454,242.668Zm-.3,5.78v.242a5.461,5.461,0,0,1-.567,2.366A4.918,4.918,0,0,1,278,253.876a4.311,4.311,0,0,1-3.353-1.536,5.685,5.685,0,0,1-1.365-3.587v-.161a5.879,5.879,0,0,1,.37-2.071,4.6,4.6,0,0,1,4.591-3.213,4.687,4.687,0,0,1,3.273,1.343A5.337,5.337,0,0,1,283.154,248.448Z" transform="translate(-229.903 -232.464)" fill="#fff"/>
    <path id="패스_8" data-name="패스 8" d="M329.017,242.668l-.006-.006a7.559,7.559,0,0,0-5.214-2.148h-.081a6.209,6.209,0,0,0-5,2.19v-1.657h-2.762v21.075a1.341,1.341,0,0,0,1.341,1.342h1.421v-9.031a6.146,6.146,0,0,0,4.881,2.221,7.8,7.8,0,0,0,5.576-2.293,8.2,8.2,0,0,0,2.308-5.607V248.4a8.393,8.393,0,0,0-.764-3.361A8.574,8.574,0,0,0,329.017,242.668Zm-.3,5.78v.242a5.452,5.452,0,0,1-.567,2.366,4.917,4.917,0,0,1-4.587,2.821,4.315,4.315,0,0,1-3.354-1.536,5.687,5.687,0,0,1-1.365-3.587v-.161a5.855,5.855,0,0,1,.371-2.071,4.6,4.6,0,0,1,4.59-3.213,4.687,4.687,0,0,1,3.273,1.343A5.334,5.334,0,0,1,328.717,248.448Z" transform="translate(-255.766 -232.464)" fill="#fff"/>
  </g>
  <g id="그룹_2" data-name="그룹 2" transform="translate(0 2.395)">
    <circle id="타원_1" data-name="타원 1" cx="3.03" cy="3.03" r="3.03" transform="translate(1.872 13.55)" fill="#ff6720"/>
    <circle id="타원_2" data-name="타원 2" cx="4.902" cy="4.902" r="4.902" transform="translate(0 0)" fill="#ff6720"/>
  </g>
</svg>
