<svg id="로그인_아이콘" xmlns="http://www.w3.org/2000/svg" width="34" height="34" viewBox="0 0 34 34">
  <rect id="사각형_58" data-name="사각형 58" width="34" height="34" fill="none"/>
  <g id="그룹_133" data-name="그룹 133" transform="translate(-3 -14)">
    <path id="패스_43" data-name="패스 43" d="M42.348,47.668a2.527,2.527,0,0,0,2.068-1.9,2.993,2.993,0,0,0,.06-.612,2.905,2.905,0,0,0-.026-.4,2.971,2.971,0,0,0-2.3-2.305,3.07,3.07,0,0,0-1.516-3.089,3.673,3.673,0,0,0-3.579,0,4.109,4.109,0,0,0-3.708-2.027c-3.482,0-4.063,3.957-4.063,3.957S26,41.492,26,44.386s3,3.282,3,3.282Z" transform="translate(-12.476 -9.669)" fill="#1565c0"/>
    <path id="패스_44" data-name="패스 44" d="M12.172,34.766a4.129,4.129,0,0,1,3.5-4.043,5.276,5.276,0,0,1,5.042-4h.022a5.425,5.425,0,0,1,4.108,1.719,5.078,5.078,0,0,1,1.4-.2h.013l.035,0C26.314,28.075,25.917,24,21.12,24a4.851,4.851,0,0,0-4.438,2.731,3.717,3.717,0,0,0-4.823.66,3.893,3.893,0,0,0-.965,3.108A3.229,3.229,0,0,0,8,33.8c0,2.73,2.991,3.013,2.991,3.013h1.673A4.229,4.229,0,0,1,12.172,34.766Z" fill="#1565c0"/>
  </g>
</svg>
